<mxfile host="app.diagrams.net" modified="2023-10-16T17:05:16.891Z" agent="Mozilla/5.0 (Windows NT 10.0; Win64; x64) AppleWebKit/537.36 (KHTML, like Gecko) Chrome/118.0.0.0 Safari/537.36" version="21.3.5" etag="wfs9b1orZs9D6kw_sNg5" type="github">
  <diagram name="Страница 1" id="jGEt_esvCLq2bd4z4RWw">
    <mxGraphModel>
      <root>
        <mxCell id="0" />
        <mxCell id="1" parent="0" />
      </root>
    </mxGraphModel>
  </diagram>
</mxfile>
